<?xml version="1.0" encoding="UTF-8"?>
<svg xmlns="http://www.w3.org/2000/svg" viewBox="0 0 1920 1080">
  <rect width="1920" height="1080" fill="none"/>

    <g fill="#fff6c8" stroke="#15151a" stroke-width="4" opacity=".86">
      <path d="M170 162l6.12 11.88 11.88 6.12-11.88 6.12-6.12 11.88-6.12-11.88-11.88-6.12 11.88-6.12z"/><path d="M262 360.2206477211845l8.84 17.16 17.16 8.84-17.16 8.84-8.84 17.16-8.84-17.16-17.16-8.84 17.16-8.84z"/><path d="M354 442.3946140238522l11.56 22.44 22.44 11.56-22.44 11.56-11.56 22.44-11.56-22.44-22.44-11.56 22.44-11.56z"/><path d="M446 423.16800120898006l6.12 11.88 11.88 6.12-11.88 6.12-6.12 11.88-6.12-11.88-11.88-6.12 11.88-6.12z"/><path d="M538 40.47962570381077l8.84 17.16 17.16 8.84-17.16 8.84-8.84 17.16-8.84-17.16-17.16-8.84 17.16-8.84z"/><path d="M630 82.16135880052923l11.56 22.44 22.44 11.56-22.44 11.56-11.56 22.44-11.56-22.44-22.44-11.56 22.44-11.56z"/><path d="M722 280.0876752701611l6.12 11.88 11.88 6.12-11.88 6.12-6.12 11.88-6.12-11.88-11.88-6.12 11.88-6.12z"/><path d="M814 492.54798980781834l8.84 17.16 17.16 8.84-17.16 8.84-8.84 17.16-8.84-17.16-17.16-8.84 17.16-8.84z"/><path d="M906 294.40373699350727l11.56 22.44 22.44 11.56-22.44 11.56-11.56 22.44-11.56-22.44-22.44-11.56 22.44-11.56z"/><path d="M998 303.8177727862635l6.12 11.88 11.88 6.12-11.88 6.12-6.12 11.88-6.12-11.88-11.88-6.12 11.88-6.12z"/><path d="M1090 232.39683336659454l8.84 17.16 17.16 8.84-17.16 8.84-8.84 17.16-8.84-17.16-17.16-8.84 17.16-8.84z"/><path d="M1182 236.00146901739447l11.56 22.44 22.44 11.56-22.44 11.56-11.56 22.44-11.56-22.44-22.44-11.56 22.44-11.56z"/><path d="M1274 81.51406229993476l6.12 11.88 11.88 6.12-11.88 6.12-6.12 11.88-6.12-11.88-11.88-6.12 11.88-6.12z"/><path d="M1366 297.0250555239961l8.84 17.16 17.16 8.84-17.16 8.84-8.84 17.16-8.84-17.16-17.16-8.84 17.16-8.84z"/><path d="M1458 454.59110335423054l11.56 22.44 22.44 11.56-22.44 11.56-11.56 22.44-11.56-22.44-22.44-11.56 22.44-11.56z"/><path d="M1550 499.5431760235675l6.12 11.88 11.88 6.12-11.88 6.12-6.12 11.88-6.12-11.88-11.88-6.12 11.88-6.12z"/><path d="M1642 110.8145025002402l8.84 17.16 17.16 8.84-17.16 8.84-8.84 17.16-8.84-17.16-17.16-8.84 17.16-8.84z"/><path d="M1734 81.79037621806648l11.56 22.44 22.44 11.56-22.44 11.56-11.56 22.44-11.56-22.44-22.44-11.56 22.44-11.56z"/>
    </g>
</svg>