<?xml version="1.0" encoding="UTF-8"?>
<svg xmlns="http://www.w3.org/2000/svg" viewBox="0 0 1920 1080">
  <defs>
    <linearGradient id="bg" x1="0" x2="1" y1="0" y2="1">
      <stop offset="0" stop-color="#e9f1fb"/>
      <stop offset=".56" stop-color="#cdddf1"/>
      <stop offset="1" stop-color="#aebfd8"/>
    </linearGradient>
    <linearGradient id="desk" x1="0" x2="0" y1="0" y2="1">
      <stop offset="0" stop-color="#ffffff"/>
      <stop offset="1" stop-color="#d9e3ef"/>
    </linearGradient>
  </defs>
  <rect width="1920" height="1080" fill="url(#bg)"/>
  <rect x="112" y="86" width="1696" height="560" rx="24" fill="#20324c" opacity=".9"/>
  <rect x="154" y="126" width="770" height="220" rx="16" fill="#f9fbff" opacity=".92"/>
  <rect x="996" y="126" width="770" height="220" rx="16" fill="#f9fbff" opacity=".92"/>
  <path d="M210 246h460M1048 246h420M1048 306h320" stroke="#3158a8" stroke-width="16" stroke-linecap="round" opacity=".72"/>
  <path d="M210 306h560" stroke="#e1a12b" stroke-width="14" stroke-linecap="round" opacity=".72"/>
  <path d="M0 650h1920v430H0z" fill="#edf4fb"/>
  <path d="M290 736h1340c94 0 170 76 170 170v174H120V906c0-94 76-170 170-170z" fill="url(#desk)" stroke="#9eb0c4" stroke-width="5"/>
  <path d="M550 800h820" stroke="#3158a8" stroke-width="18" stroke-linecap="round" opacity=".38"/>
</svg>