<?xml version="1.0" encoding="UTF-8"?>
<svg xmlns="http://www.w3.org/2000/svg" viewBox="0 0 1920 1080">
  <defs>
    <linearGradient id="bg" x1="0" x2="1" y1="0" y2="1"><stop offset="0" stop-color="#071327"/><stop offset="1" stop-color="#172b56"/></linearGradient>
  </defs>
  <rect width="1920" height="1080" fill="url(#bg)"/>
  <circle cx="1640" cy="170" r="220" fill="#79d8ff" opacity=".12"/>
  <circle cx="260" cy="820" r="280" fill="#79d8ff" opacity=".08"/>

    <circle cx="1460" cy="246" r="138" fill="#79d8ff" opacity=".18"/>
    <circle cx="1460" cy="246" r="88" fill="#ffffff" opacity=".1"/>
    <path d="M260 760C560 492 830 420 1120 544c230 98 388 86 620-42" fill="none" stroke="#79d8ff" stroke-width="8" stroke-opacity=".28"/>
    <g fill="#ffffff" opacity=".8"><circle cx="40" cy="40" r="2"/><circle cx="371" cy="237" r="3"/><circle cx="702" cy="434" r="4"/><circle cx="1033" cy="631" r="2"/><circle cx="1364" cy="128" r="3"/><circle cx="1695" cy="325" r="4"/><circle cx="186" cy="522" r="2"/><circle cx="517" cy="719" r="3"/><circle cx="848" cy="216" r="4"/><circle cx="1179" cy="413" r="2"/><circle cx="1510" cy="610" r="3"/><circle cx="1841" cy="107" r="4"/><circle cx="332" cy="304" r="2"/><circle cx="663" cy="501" r="3"/><circle cx="994" cy="698" r="4"/><circle cx="1325" cy="195" r="2"/><circle cx="1656" cy="392" r="3"/><circle cx="147" cy="589" r="4"/><circle cx="478" cy="86" r="2"/><circle cx="809" cy="283" r="3"/><circle cx="1140" cy="480" r="4"/><circle cx="1471" cy="677" r="2"/><circle cx="1802" cy="174" r="3"/><circle cx="293" cy="371" r="4"/><circle cx="624" cy="568" r="2"/><circle cx="955" cy="65" r="3"/><circle cx="1286" cy="262" r="4"/><circle cx="1617" cy="459" r="2"/><circle cx="108" cy="656" r="3"/><circle cx="439" cy="153" r="4"/><circle cx="770" cy="350" r="2"/><circle cx="1101" cy="547" r="3"/><circle cx="1432" cy="44" r="4"/><circle cx="1763" cy="241" r="2"/><circle cx="254" cy="438" r="3"/><circle cx="585" cy="635" r="4"/><circle cx="916" cy="132" r="2"/><circle cx="1247" cy="329" r="3"/><circle cx="1578" cy="526" r="4"/><circle cx="69" cy="723" r="2"/><circle cx="400" cy="220" r="3"/><circle cx="731" cy="417" r="4"/><circle cx="1062" cy="614" r="2"/><circle cx="1393" cy="111" r="3"/><circle cx="1724" cy="308" r="4"/><circle cx="215" cy="505" r="2"/><circle cx="546" cy="702" r="3"/><circle cx="877" cy="199" r="4"/><circle cx="1208" cy="396" r="2"/><circle cx="1539" cy="593" r="3"/><circle cx="1870" cy="90" r="4"/><circle cx="361" cy="287" r="2"/><circle cx="692" cy="484" r="3"/><circle cx="1023" cy="681" r="4"/><circle cx="1354" cy="178" r="2"/><circle cx="1685" cy="375" r="3"/><circle cx="176" cy="572" r="4"/><circle cx="507" cy="69" r="2"/><circle cx="838" cy="266" r="3"/><circle cx="1169" cy="463" r="4"/><circle cx="1500" cy="660" r="2"/><circle cx="1831" cy="157" r="3"/><circle cx="322" cy="354" r="4"/><circle cx="653" cy="551" r="2"/><circle cx="984" cy="48" r="3"/><circle cx="1315" cy="245" r="4"/><circle cx="1646" cy="442" r="2"/><circle cx="137" cy="639" r="3"/><circle cx="468" cy="136" r="4"/><circle cx="799" cy="333" r="2"/><circle cx="1130" cy="530" r="3"/><circle cx="1461" cy="727" r="4"/><circle cx="1792" cy="224" r="2"/><circle cx="283" cy="421" r="3"/><circle cx="614" cy="618" r="4"/><circle cx="945" cy="115" r="2"/><circle cx="1276" cy="312" r="3"/><circle cx="1607" cy="509" r="4"/><circle cx="98" cy="706" r="2"/><circle cx="429" cy="203" r="3"/></g>
    <rect x="148" y="122" width="760" height="360" rx="20" fill="rgba(255,255,255,.08)" stroke="rgba(255,255,255,.18)" stroke-width="4"/>

</svg>