<?xml version="1.0" encoding="UTF-8"?>
<svg xmlns="http://www.w3.org/2000/svg" viewBox="0 0 640 640" role="img" aria-label="Original red-ribbon yukkuri head serious">
  <defs>
    <radialGradient id="skin" cx="50%" cy="40%" r="60%">
      <stop offset="0" stop-color="#fff8ee"/>
      <stop offset=".74" stop-color="#ffe8d5"/>
      <stop offset="1" stop-color="#e8b68d"/>
    </radialGradient>
    <filter id="softShadow" x="-30%" y="-30%" width="160%" height="160%">
      <feDropShadow dx="0" dy="18" stdDeviation="18" flood-color="#000" flood-opacity=".22"/>
    </filter>
  </defs>
  <g filter="url(#softShadow)">

      <g transform="translate(320 92)">
        <path d="M-34 30c-72-86-174-70-206 6 65 30 140 26 206-6z" fill="#cc294c" stroke="#741126" stroke-width="12" stroke-linejoin="round"/>
        <path d="M34 30c72-86 174-70 206 6-65 30-140 26-206-6z" fill="#cc294c" stroke="#741126" stroke-width="12" stroke-linejoin="round"/>
        <path d="M-200 30c36-16 70-20 102-12M102 18c32-8 66-4 102 12" fill="none" stroke="#fff3f4" stroke-width="12" stroke-linecap="round" opacity=".9"/>
        <g fill="#fff3f4" stroke="#741126" stroke-width="3" opacity=".94">
          <circle cx="-174" cy="18" r="10"/><circle cx="-140" cy="8" r="9"/><circle cx="-106" cy="8" r="9"/><circle cx="-72" cy="18" r="10"/>
          <circle cx="72" cy="18" r="10"/><circle cx="106" cy="8" r="9"/><circle cx="140" cy="8" r="9"/><circle cx="174" cy="18" r="10"/>
        </g>
        <circle cx="0" cy="34" r="38" fill="#ff6984" stroke="#741126" stroke-width="12"/>
        <path d="M-22 18c16 14 30 18 44 0" fill="none" stroke="#fff3f4" stroke-width="8" stroke-linecap="round"/>
      </g>

    <path d="M86 300C76 164 176 82 320 82s244 82 234 218c-36-62-96-100-180-126 0 0 24 62 16 102-42-78-100-122-176-142 12 54-16 112-78 162 8-68-20-110-84-132z"
      fill="#2b2024" stroke="#15151a" stroke-width="12" stroke-linejoin="round"/>
    <path d="M150 196c90-70 202-86 340-10-82-34-172-18-268 42-44 28-70 54-86 82 0-38 4-78 14-114z"
      fill="#6f4554" opacity=".42"/>
    <path d="M118 322c18 30 42 52 74 66M520 322c-18 30-42 52-74 66" fill="none" stroke="#51343f" stroke-width="18" stroke-linecap="round" opacity=".76"/>
    <ellipse cx="320" cy="342" rx="246" ry="216" fill="url(#skin)" stroke="#15151a" stroke-width="13"/>
    <path d="M132 328c34 16 68 16 102 0M406 328c34 16 68 16 102 0" fill="none" stroke="#d49b80" stroke-width="8" stroke-linecap="round" opacity=".34"/>
    <ellipse cx="204" cy="352" rx="56" ry="25" fill="#ff9fb0" opacity=".25"/>
    <ellipse cx="436" cy="352" rx="56" ry="25" fill="#ff9fb0" opacity=".25"/>
    <g>
    <path d="M168 266c35-13 72-12 108 4" fill="none" stroke="#15151a" stroke-width="16" stroke-linecap="round" stroke-linejoin="round" />
    <path d="M364 270c35-16 73-17 108-4" fill="none" stroke="#15151a" stroke-width="16" stroke-linecap="round" stroke-linejoin="round" />
    <path d="M282 398c42-15 90-15 132 0" fill="none" stroke="#15151a" stroke-width="16" stroke-linecap="round" stroke-linejoin="round" />
    <path d="M152 220l96 30" fill="none" stroke="#15151a" stroke-width="13" stroke-linecap="round" stroke-linejoin="round" />
    <path d="M392 250l96-30" fill="none" stroke="#15151a" stroke-width="13" stroke-linecap="round" stroke-linejoin="round" /></g>
    <path d="M112 454c58 86 140 126 248 116 74-7 132-36 170-88-44 82-114 130-210 134-106 4-180-52-208-162z" fill="#ffdbe4" opacity=".27"/>
  </g>
</svg>