<?xml version="1.0" encoding="UTF-8"?>
<svg xmlns="http://www.w3.org/2000/svg" viewBox="0 0 640 640" role="img" aria-label="Original headset yukkuri head neutral">
  <defs>
    <radialGradient id="skin" cx="50%" cy="40%" r="60%">
      <stop offset="0" stop-color="#fff8ee"/>
      <stop offset=".74" stop-color="#f4dfca"/>
      <stop offset="1" stop-color="#d5a983"/>
    </radialGradient>
    <filter id="softShadow" x="-30%" y="-30%" width="160%" height="160%">
      <feDropShadow dx="0" dy="18" stdDeviation="18" flood-color="#000" flood-opacity=".22"/>
    </filter>
  </defs>
  <g filter="url(#softShadow)">

    <g>
      <path d="M112 282c-48 14-74 52-68 100 7 54 48 84 98 80" fill="none" stroke="#1b2638" stroke-width="25" stroke-linecap="round"/>
      <path d="M528 282c48 14 74 52 68 100-7 54-48 84-98 80" fill="none" stroke="#1b2638" stroke-width="25" stroke-linecap="round"/>
      <rect x="78" y="318" width="68" height="104" rx="24" fill="#41d7ff" stroke="#102332" stroke-width="10"/>
      <rect x="494" y="318" width="68" height="104" rx="24" fill="#41d7ff" stroke="#102332" stroke-width="10"/>
      <path d="M494 408c-12 96-82 132-176 116" fill="none" stroke="#41d7ff" stroke-width="10" stroke-linecap="round"/>
    </g>

    <path d="M86 300C76 164 176 82 320 82s244 82 234 218c-36-62-96-100-180-126 0 0 24 62 16 102-42-78-100-122-176-142 12 54-16 112-78 162 8-68-20-110-84-132z"
      fill="#31465f" stroke="#15151a" stroke-width="12" stroke-linejoin="round"/>
    <path d="M150 196c90-70 202-86 340-10-82-34-172-18-268 42-44 28-70 54-86 82 0-38 4-78 14-114z"
      fill="#557095" opacity=".42"/>
    <path d="M118 322c18 30 42 52 74 66M520 322c-18 30-42 52-74 66" fill="none" stroke="#182536" stroke-width="18" stroke-linecap="round" opacity=".76"/>
    <ellipse cx="320" cy="342" rx="246" ry="216" fill="url(#skin)" stroke="#15151a" stroke-width="13"/>
    <path d="M132 328c34 16 68 16 102 0M406 328c34 16 68 16 102 0" fill="none" stroke="#d49b80" stroke-width="8" stroke-linecap="round" opacity=".34"/>
    <ellipse cx="204" cy="352" rx="56" ry="25" fill="#f2a0bf" opacity=".62"/>
    <ellipse cx="436" cy="352" rx="56" ry="25" fill="#f2a0bf" opacity=".62"/>
    <g>
    <path d="M176 270c27 18 65 18 92 0" fill="none" stroke="#15151a" stroke-width="16" stroke-linecap="round" stroke-linejoin="round" />
    <path d="M372 270c27 18 65 18 92 0" fill="none" stroke="#15151a" stroke-width="16" stroke-linecap="round" stroke-linejoin="round" />
    <path d="M282 382c40 25 86 25 126 0" fill="none" stroke="#15151a" stroke-width="16" stroke-linecap="round" stroke-linejoin="round" />
    <path d="M160 226c32-12 62-13 92-3M388 223c30-10 60-9 92 3" fill="none" stroke="#15151a" stroke-width="9" stroke-linecap="round" opacity=".42"/></g>
    <path d="M112 454c58 86 140 126 248 116 74-7 132-36 170-88-44 82-114 130-210 134-106 4-180-52-208-162z" fill="#d7f5ff" opacity=".27"/>
  </g>
</svg>